<svg width="117" height="146" viewBox="0 0 117 146" fill="none" xmlns="http://www.w3.org/2000/svg">
<path d="M10.6707 136.806L1.70509 145.772L0.232178 144.299L9.19675 135.333H1.29572V133.25H12.754V144.708H10.6707V136.806Z" fill="black"/>
<path d="M117 24.8244C117 11.2297 105.807 0.208984 92 0.208984C78.1929 0.208984 67 11.2297 67 24.8244C67 38.4191 78.1929 49.4398 92 49.4398C105.807 49.4398 117 38.4191 117 24.8244Z" fill="#A5BEFF"/>
<path d="M100.037 17.7249L92.2244 15.4172C92.1078 15.3828 91.9846 15.3756 91.8647 15.3964C91.7447 15.4172 91.6313 15.4652 91.5336 15.5368C91.4359 15.6085 91.3565 15.7015 91.3018 15.8087C91.2472 15.9158 91.2187 16.0341 91.2187 16.154V20.7521C91.2184 20.7638 91.2184 20.7755 91.2187 20.7873V26.5638C90.419 25.8598 89.398 25.4474 88.3266 25.3955C87.2551 25.3435 86.198 25.6552 85.3319 26.2785C84.4658 26.9017 83.8432 27.7987 83.5681 28.8196C83.2929 29.8405 83.382 30.9235 83.8204 31.8875C84.2586 32.8516 85.0197 33.6383 85.9764 34.1163C86.933 34.5942 88.0273 34.7345 89.0763 34.5135C90.1254 34.2925 91.0655 33.7238 91.7399 32.9023C92.4142 32.0808 92.7818 31.0564 92.7812 30.0002V21.8032L99.5879 23.8138C99.7046 23.8483 99.8279 23.8555 99.9478 23.8347C100.068 23.8139 100.181 23.7658 100.279 23.6942C100.377 23.6226 100.456 23.5295 100.511 23.4224C100.565 23.3152 100.594 23.197 100.594 23.0771V18.4617C100.594 18.2962 100.54 18.1352 100.439 18.0025C100.339 17.8698 100.198 17.7725 100.037 17.7249Z" fill="#0033B6"/>
</svg>
